<svg width="500" height="500" viewBox="0 0 500 500" fill="none" xmlns="http://www.w3.org/2000/svg">
<g clip-path="url(#clip0_1319_2097)">
<circle cx="250" cy="250" r="250" fill="white"/>
<path d="M277.544 75H223.036C176.623 75.0548 132.128 93.5121 99.3129 126.324C66.4981 159.136 48.0438 203.623 48 250.02C48.0548 296.412 66.5138 340.887 99.3276 373.69C132.141 406.493 176.63 424.944 223.036 425H277.75C324.162 424.956 368.663 406.509 401.485 373.703C434.308 340.9 452.773 296.419 452.827 250.02C452.783 203.58 434.296 159.057 401.428 126.237C368.558 93.4181 324 74.989 277.544 75ZM69.6619 250.02C69.6619 209.39 85.8078 170.422 114.548 141.692C143.288 112.961 182.267 96.8208 222.911 96.8208C231.474 96.8176 240.021 97.523 248.468 98.9315C284.219 104.843 316.698 123.284 340.089 150.953C363.477 178.622 376.251 213.712 376.12 249.937C376.077 273.2 367.81 295.699 352.782 313.458C337.753 331.217 316.927 343.096 293.986 346.992C309.269 335.84 321.698 321.234 330.262 304.367C338.829 287.502 343.287 268.853 343.275 249.937C343.321 223.253 334.474 197.312 318.131 176.213C301.787 155.114 278.878 140.057 253.022 133.423C243.188 130.882 233.07 129.602 222.911 129.614C191.043 129.712 160.511 142.429 137.999 164.98C115.487 187.531 102.83 218.079 102.797 249.937C102.716 279.503 110.15 308.602 124.4 334.507C138.651 360.414 159.251 382.277 184.268 398.045C151.526 389.451 122.545 370.273 101.839 343.5C81.1335 316.728 69.864 283.862 69.7864 250.02H69.6619ZM250.206 155.492C270.718 161.397 288.749 173.813 301.579 190.867C314.409 207.92 321.338 228.683 321.322 250.02C321.329 271.352 314.395 292.104 301.567 309.15C288.737 326.194 270.711 338.604 250.206 344.508C229.703 338.604 211.676 326.194 198.847 309.15C186.018 292.104 179.084 271.352 179.091 250.02C179.075 228.683 186.005 207.92 198.835 190.867C211.664 173.813 229.696 161.397 250.206 155.492ZM277.544 403.139H276.922C268.595 403.093 260.285 402.385 252.07 401.026C217.205 395.245 185.428 377.54 162.174 350.933C138.921 324.326 125.633 290.471 124.583 255.155C124.583 253.415 124.583 251.718 124.583 250.02C124.609 226.754 132.869 204.246 147.902 186.483C162.934 168.72 183.769 156.848 206.717 152.967C191.428 164.116 178.99 178.717 170.418 195.583C161.845 212.449 157.38 231.103 157.387 250.02C157.35 276.7 166.201 302.629 182.543 323.721C198.886 344.811 221.79 359.862 247.639 366.494C257.47 369.056 267.591 370.336 277.75 370.303C309.654 370.27 340.244 357.589 362.809 335.04C385.372 312.491 398.069 281.916 398.113 250.02C398.206 220.454 390.778 191.349 376.525 165.441C362.275 139.533 341.667 117.673 316.643 101.914C349.377 110.519 378.342 129.716 399.014 156.509C419.687 183.302 430.905 216.184 430.917 250.02C430.906 270.143 426.93 290.067 419.216 308.651C411.503 327.237 400.201 344.121 385.958 358.34C371.715 372.559 354.81 383.833 336.207 391.519C317.607 399.206 297.672 403.154 277.544 403.139Z" fill="#FC5200"/>
</g>
<defs>
<clipPath id="clip0_1319_2097">
<rect width="500" height="500" fill="white"/>
</clipPath>
</defs>
</svg>
